<svg xmlns="http://www.w3.org/2000/svg" viewBox="0 0 600 700" fill="none" stroke="#4a8c7c" stroke-width="2.2" stroke-linecap="round" stroke-linejoin="round">
  <g opacity="0.85">
    <!-- Main outline of India (stylised hand-sketch) -->
    <path d="M180 95 C 175 105 178 118 188 122 C 200 124 214 116 226 122 C 236 130 230 144 240 152 C 254 160 272 152 286 158 C 300 166 296 184 310 190 C 326 194 344 184 360 192 C 374 202 366 222 378 232 C 392 240 414 232 426 244 C 436 258 422 274 430 290 C 440 308 462 312 470 330 C 476 348 462 366 466 384 C 472 402 492 410 494 430 C 494 450 472 460 462 478 C 450 498 460 522 446 538 C 430 552 406 544 388 552 C 368 562 360 588 340 596 C 322 600 306 584 296 568 C 286 548 296 524 286 506 C 274 488 250 484 240 466 C 232 446 248 426 240 408 C 230 388 204 386 196 366 C 190 344 210 326 204 304 C 196 282 168 280 158 260 C 150 238 170 218 162 198 C 152 178 124 178 118 158 C 114 138 134 122 152 114 C 162 108 172 100 180 95 Z" />

    <!-- Southern peninsula tip extending down -->
    <path d="M286 568 C 282 590 290 612 302 628 C 312 642 320 660 314 676 C 308 686 296 684 290 674" />

    <!-- Western coastline accent -->
    <path d="M158 260 C 142 256 124 264 116 278" />

    <!-- Kashmir / north accent -->
    <path d="M118 158 C 104 152 90 158 84 170" />

    <!-- Northeast accent -->
    <path d="M470 330 C 488 322 506 332 510 350" />

    <!-- Sri Lanka (small island below) -->
    <path d="M340 660 C 350 656 360 664 358 676 C 354 686 342 686 338 676 C 334 668 336 662 340 660 Z" opacity="0.7" />

    <!-- Decorative interior strokes (sketch feel) -->
    <g opacity="0.4">
      <path d="M150 300 q 6 -8 14 -4" />
      <path d="M170 330 q 6 -8 14 -4" />
      <path d="M250 420 q 6 -8 14 -4" />
      <path d="M320 500 q 6 -8 14 -4" />
      <path d="M380 380 q 6 -8 14 -4" />
      <path d="M420 280 q 6 -8 14 -4" />
      <path d="M210 230 q 6 -8 14 -4" />
      <path d="M350 270 q 6 -8 14 -4" />
    </g>
  </g>
</svg>
